<svg width="232" height="24" viewBox="0 0 232 24" fill="none" xmlns="http://www.w3.org/2000/svg">
<path d="M14 20V14C14 12.8954 13.1046 12 12 12C10.8954 12 10 12.8954 10 14V20M10.9833 3.60011L4.98335 7.14177C4.37395 7.50149 4 8.15646 4 8.8641V18C4 19.1046 4.89543 20 6 20H18C19.1046 20 20 19.1046 20 18V8.8641C20 8.15646 19.6261 7.50149 19.0167 7.14177L13.0167 3.60011C12.3894 3.22988 11.6106 3.22988 10.9833 3.60011Z" stroke="#888888" stroke-width="1.4" stroke-linecap="round" stroke-linejoin="round"/>
<path d="M33.232 17.5V7.07H36.662C37.698 7.07 38.5987 7.28467 39.364 7.714C40.1293 8.134 40.722 8.736 41.142 9.52C41.562 10.2947 41.772 11.214 41.772 12.278C41.772 13.3327 41.562 14.252 41.142 15.036C40.722 15.82 40.1293 16.4267 39.364 16.856C38.5987 17.2853 37.698 17.5 36.662 17.5H33.232ZM34.352 16.45H36.662C37.4647 16.45 38.16 16.282 38.748 15.946C39.336 15.6007 39.7887 15.1153 40.106 14.49C40.4327 13.8647 40.596 13.1273 40.596 12.278C40.596 11.4287 40.4327 10.696 40.106 10.08C39.7793 9.45467 39.322 8.974 38.734 8.638C38.146 8.29267 37.4553 8.12 36.662 8.12H34.352V16.45ZM45.5019 17.668C45.0259 17.668 44.6012 17.5793 44.2279 17.402C43.8546 17.2153 43.5606 16.9633 43.3459 16.646C43.1312 16.3287 43.0239 15.9647 43.0239 15.554C43.0239 15.162 43.1079 14.8073 43.2759 14.49C43.4439 14.1633 43.7052 13.888 44.0599 13.664C44.4146 13.44 44.8672 13.2813 45.4179 13.188L48.3579 12.698V13.65L45.6699 14.098C45.1286 14.1913 44.7366 14.364 44.4939 14.616C44.2606 14.868 44.1439 15.1667 44.1439 15.512C44.1439 15.848 44.2746 16.1327 44.5359 16.366C44.8066 16.5993 45.1519 16.716 45.5719 16.716C46.0852 16.716 46.5332 16.6087 46.9159 16.394C47.2986 16.17 47.5972 15.8713 47.8119 15.498C48.0266 15.1247 48.1339 14.7093 48.1339 14.252V12.348C48.1339 11.9 47.9706 11.536 47.6439 11.256C47.3172 10.976 46.8926 10.836 46.3699 10.836C45.9126 10.836 45.5112 10.9527 45.1659 11.186C44.8206 11.41 44.5639 11.704 44.3959 12.068L43.4439 11.55C43.5839 11.2327 43.8032 10.9433 44.1019 10.682C44.4099 10.4207 44.7599 10.2153 45.1519 10.066C45.5439 9.90733 45.9499 9.828 46.3699 9.828C46.9206 9.828 47.4059 9.93533 47.8259 10.15C48.2552 10.3647 48.5866 10.6633 48.8199 11.046C49.0626 11.4193 49.1839 11.8533 49.1839 12.348V17.5H48.1339V16.002L48.2879 16.156C48.1572 16.436 47.9519 16.6927 47.6719 16.926C47.4012 17.15 47.0792 17.332 46.7059 17.472C46.3419 17.6027 45.9406 17.668 45.5019 17.668ZM53.9476 17.668C53.229 17.668 52.599 17.486 52.0576 17.122C51.5163 16.758 51.1243 16.2633 50.8816 15.638L51.7636 15.218C51.9783 15.6753 52.277 16.0393 52.6596 16.31C53.0516 16.5807 53.481 16.716 53.9476 16.716C54.3956 16.716 54.7736 16.6087 55.0816 16.394C55.3896 16.17 55.5436 15.8807 55.5436 15.526C55.5436 15.2647 55.469 15.0593 55.3196 14.91C55.1703 14.7513 54.9976 14.63 54.8016 14.546C54.6056 14.462 54.433 14.4013 54.2836 14.364L53.2056 14.056C52.515 13.86 52.0156 13.5847 51.7076 13.23C51.3996 12.8753 51.2456 12.4647 51.2456 11.998C51.2456 11.5593 51.3576 11.1767 51.5816 10.85C51.8056 10.5233 52.109 10.2713 52.4916 10.094C52.8743 9.91667 53.299 9.828 53.7656 9.828C54.4003 9.828 54.9743 9.996 55.4876 10.332C56.0103 10.6587 56.379 11.116 56.5936 11.704L55.6976 12.124C55.511 11.704 55.2403 11.3773 54.8856 11.144C54.5403 10.9013 54.153 10.78 53.7236 10.78C53.3036 10.78 52.9676 10.8873 52.7156 11.102C52.4636 11.3167 52.3376 11.5873 52.3376 11.914C52.3376 12.166 52.403 12.3667 52.5336 12.516C52.6643 12.6653 52.8136 12.7773 52.9816 12.852C53.159 12.9267 53.313 12.9827 53.4436 13.02L54.6896 13.384C55.2963 13.5613 55.7676 13.8367 56.1036 14.21C56.449 14.5833 56.6216 15.022 56.6216 15.526C56.6216 15.9367 56.505 16.3053 56.2716 16.632C56.0476 16.9587 55.735 17.2153 55.3336 17.402C54.9323 17.5793 54.4703 17.668 53.9476 17.668ZM58.4667 17.5V6.902H59.5167V11.452L59.2787 11.396C59.4653 10.9107 59.7687 10.528 60.1887 10.248C60.618 9.968 61.1127 9.828 61.6727 9.828C62.2047 9.828 62.6807 9.94933 63.1007 10.192C63.53 10.4347 63.866 10.7707 64.1087 11.2C64.3607 11.62 64.4867 12.096 64.4867 12.628V17.5H63.4367V13.034C63.4367 12.5767 63.3527 12.1893 63.1847 11.872C63.0167 11.5547 62.7833 11.312 62.4847 11.144C62.1953 10.9667 61.864 10.878 61.4907 10.878C61.1173 10.878 60.7813 10.9667 60.4827 11.144C60.184 11.312 59.946 11.5593 59.7687 11.886C59.6007 12.2033 59.5167 12.586 59.5167 13.034V17.5H58.4667ZM70.2861 17.668C69.6421 17.668 69.0587 17.5233 68.5361 17.234C68.0227 16.9353 67.6354 16.5153 67.3741 15.974L67.5421 15.82V17.5H66.4921V6.902H67.5421V11.676L67.3741 11.382C67.6727 10.906 68.0694 10.528 68.5641 10.248C69.0681 9.968 69.6421 9.828 70.2861 9.828C70.9954 9.828 71.6254 10.0007 72.1761 10.346C72.7361 10.682 73.1747 11.144 73.4921 11.732C73.8187 12.32 73.9821 12.992 73.9821 13.748C73.9821 14.4947 73.8187 15.1667 73.4921 15.764C73.1747 16.352 72.7361 16.8187 72.1761 17.164C71.6254 17.5 70.9954 17.668 70.2861 17.668ZM70.2301 16.618C70.7341 16.618 71.1821 16.492 71.5741 16.24C71.9754 15.988 72.2881 15.6473 72.5121 15.218C72.7454 14.7793 72.8621 14.2893 72.8621 13.748C72.8621 13.1973 72.7454 12.7073 72.5121 12.278C72.2881 11.8487 71.9754 11.508 71.5741 11.256C71.1821 11.004 70.7341 10.878 70.2301 10.878C69.7261 10.878 69.2687 11.004 68.8581 11.256C68.4567 11.508 68.1347 11.8533 67.8921 12.292C67.6587 12.7213 67.5421 13.2067 67.5421 13.748C67.5421 14.2893 67.6587 14.7793 67.8921 15.218C68.1347 15.6473 68.4567 15.988 68.8581 16.24C69.2687 16.492 69.7261 16.618 70.2301 16.618ZM79.344 17.668C78.6346 17.668 77.9906 17.5 77.412 17.164C76.8333 16.8187 76.3713 16.352 76.026 15.764C75.69 15.1667 75.522 14.49 75.522 13.734C75.522 12.9873 75.69 12.32 76.026 11.732C76.362 11.144 76.8146 10.682 77.384 10.346C77.9626 10.0007 78.616 9.828 79.344 9.828C80.072 9.828 80.7206 9.996 81.29 10.332C81.8686 10.668 82.3213 11.13 82.648 11.718C82.984 12.306 83.152 12.978 83.152 13.734C83.152 14.4993 82.9793 15.1807 82.634 15.778C82.2886 16.366 81.8266 16.828 81.248 17.164C80.6786 17.5 80.044 17.668 79.344 17.668ZM79.344 16.618C79.848 16.618 80.3006 16.492 80.702 16.24C81.1126 15.988 81.4346 15.6427 81.668 15.204C81.9106 14.7653 82.032 14.2753 82.032 13.734C82.032 13.1927 81.9106 12.7073 81.668 12.278C81.4346 11.8487 81.1126 11.508 80.702 11.256C80.3006 11.004 79.848 10.878 79.344 10.878C78.84 10.878 78.3826 11.004 77.972 11.256C77.5706 11.508 77.2486 11.8487 77.006 12.278C76.7633 12.7073 76.642 13.1927 76.642 13.734C76.642 14.2753 76.7633 14.7653 77.006 15.204C77.2486 15.6427 77.5706 15.988 77.972 16.24C78.3826 16.492 78.84 16.618 79.344 16.618ZM87.1738 17.668C86.6978 17.668 86.2731 17.5793 85.8998 17.402C85.5264 17.2153 85.2324 16.9633 85.0178 16.646C84.8031 16.3287 84.6958 15.9647 84.6958 15.554C84.6958 15.162 84.7798 14.8073 84.9478 14.49C85.1158 14.1633 85.3771 13.888 85.7318 13.664C86.0864 13.44 86.5391 13.2813 87.0898 13.188L90.0298 12.698V13.65L87.3418 14.098C86.8004 14.1913 86.4084 14.364 86.1658 14.616C85.9324 14.868 85.8158 15.1667 85.8158 15.512C85.8158 15.848 85.9464 16.1327 86.2078 16.366C86.4784 16.5993 86.8238 16.716 87.2438 16.716C87.7571 16.716 88.2051 16.6087 88.5878 16.394C88.9704 16.17 89.2691 15.8713 89.4838 15.498C89.6984 15.1247 89.8058 14.7093 89.8058 14.252V12.348C89.8058 11.9 89.6424 11.536 89.3158 11.256C88.9891 10.976 88.5644 10.836 88.0418 10.836C87.5844 10.836 87.1831 10.9527 86.8378 11.186C86.4924 11.41 86.2358 11.704 86.0678 12.068L85.1158 11.55C85.2558 11.2327 85.4751 10.9433 85.7738 10.682C86.0818 10.4207 86.4318 10.2153 86.8238 10.066C87.2158 9.90733 87.6218 9.828 88.0418 9.828C88.5924 9.828 89.0778 9.93533 89.4978 10.15C89.9271 10.3647 90.2584 10.6633 90.4918 11.046C90.7344 11.4193 90.8558 11.8533 90.8558 12.348V17.5H89.8058V16.002L89.9598 16.156C89.8291 16.436 89.6238 16.6927 89.3438 16.926C89.0731 17.15 88.7511 17.332 88.3778 17.472C88.0138 17.6027 87.6124 17.668 87.1738 17.668ZM93.0155 17.5V9.996H94.0655V11.228L93.9255 11.046C94.1028 10.6913 94.3688 10.4113 94.7235 10.206C95.0875 10.0007 95.5262 9.898 96.0395 9.898H96.5155V10.948H95.8575C95.3162 10.948 94.8822 11.116 94.5555 11.452C94.2288 11.788 94.0655 12.264 94.0655 12.88V17.5H93.0155ZM101.134 17.668C100.434 17.668 99.804 17.5 99.244 17.164C98.684 16.8187 98.2406 16.352 97.914 15.764C97.5966 15.1667 97.438 14.4947 97.438 13.748C97.438 12.992 97.5966 12.32 97.914 11.732C98.2406 11.144 98.6793 10.682 99.23 10.346C99.79 10.0007 100.425 9.828 101.134 9.828C101.778 9.828 102.352 9.968 102.856 10.248C103.36 10.528 103.757 10.906 104.046 11.382L103.878 11.676V6.902H104.928V17.5H103.878V15.82L104.046 15.974C103.785 16.5153 103.393 16.9353 102.87 17.234C102.357 17.5233 101.778 17.668 101.134 17.668ZM101.19 16.618C101.694 16.618 102.147 16.492 102.548 16.24C102.959 15.988 103.281 15.6473 103.514 15.218C103.757 14.7793 103.878 14.2893 103.878 13.748C103.878 13.2067 103.757 12.7213 103.514 12.292C103.281 11.8533 102.959 11.508 102.548 11.256C102.147 11.004 101.694 10.878 101.19 10.878C100.695 10.878 100.247 11.004 99.846 11.256C99.4446 11.508 99.1273 11.8487 98.894 12.278C98.67 12.7073 98.558 13.1973 98.558 13.748C98.558 14.2893 98.67 14.7793 98.894 15.218C99.1273 15.6473 99.44 15.988 99.832 16.24C100.233 16.492 100.686 16.618 101.19 16.618Z" fill="#888888"/>
</svg>
